<svg aria-hidden="true" style="position:absolute;width:0;height:0;overflow:hidden" xmlns="http://www.w3.org/2000/svg">
  <defs>
    <symbol id="icon-antenna" viewBox="0 0 32 32">
      <path fill="#212121" style="fill:var(--color1, #212121)" d="m30.773 22.098-8.443-8.505.937-4.616c.225.09.485.144.758.146h.033a2.16 2.16 0 1 0-2.024-1.405l-.005-.015-.005-.015-4.96.606L8.973.161a.53.53 0 0 0-.376-.16.533.533 0 0 0-.373.155L6.712 1.66a.534.534 0 0 0 0 .754l.814.825C6.383 5.301 5.71 7.761 5.71 10.378c0 4.106 1.656 7.824 4.336 10.525l-.001-.001c.041.04.09.072.143.096l.003.001a2.9 2.9 0 0 0-.052.546v6.188h-6.4a2.67 2.67 0 0 0-2.667 2.666v1.067c0 .295.239.534.534.534H26.14a.534.534 0 0 0 .533-.534v-1.067a2.67 2.67 0 0 0-2.666-2.666h-6.4v-2.742c.919.203 1.974.319 3.057.319 2.608 0 5.057-.675 7.184-1.86l-.075.038-.077.039.818.823a.53.53 0 0 0 .376.16.533.533 0 0 0 .373-.155l1.512-1.504a.534.534 0 0 0 0-.754zM23.28 6.233a1.067 1.067 0 1 1 .754 1.822h-.006a1.066 1.066 0 0 1-.747-1.822h-.002zm-1.256 3.504-.598 2.946-1.175-1.183 1.774-1.763zm-.605-.902-1.92 1.909-1.486-1.493 3.406-.416zM24.004 28.8a1.6 1.6 0 0 1 1.6 1.6v.534H2.138V30.4a1.6 1.6 0 0 1 1.6-1.6h20.267zm-7.466-2.134v1.067h-5.334v-1.067h5.334zM11.204 25.6v-4.053c0-1.294 1.196-2.346 2.667-2.346s2.667 1.053 2.667 2.346V25.6h-5.334zm6.4-1.696v-2.357c0-1.882-1.675-3.413-3.733-3.413h-.058c-1.353 0-2.54.707-3.213 1.771l-.009.016a13.764 13.764 0 0 1-3.812-9.529v-.022.001c0-2.314.567-4.496 1.569-6.414l-.036.077 18.602 18.709c-1.823.947-3.979 1.502-6.266 1.502-1.079 0-2.128-.124-3.136-.357l.093.018zm11.289-.684L7.836 2.039l.754-.752 7.935 7.98c.004 0 .006.007.01.01l13.114 13.191-.757.752z"/>
      <path fill="#2196f3" style="fill:var(--color2, #2196f3)" d="M13.876 20.267H13.867a1.6 1.6 0 0 0-.002 3.2h.008a1.6 1.6 0 0 0 .001-3.2zm.373 1.978a.535.535 0 1 1-.378-.912.532.532 0 0 1 .374.911h.005z"/>
    </symbol>
    <symbol id="icon-astronaut" viewBox="0 0 32 32">
      <path fill="#2196f3" style="fill:var(--color2, #2196f3)" d="M31.974 4.524a.539.539 0 0 0-.424-.362h-.006l-1.911-.278-.855-1.731c-.179-.365-.777-.365-.956 0l-.855 1.731-1.911.278a.534.534 0 0 0-.296.91l1.383 1.348-.326 1.903a.534.534 0 0 0 .524.624.525.525 0 0 0 .253-.064l-.003.001 1.709-.899 1.709.899a.534.534 0 0 0 .773-.569v.006l-.326-1.903 1.383-1.348a.535.535 0 0 0 .133-.553l.001.004.001.004zm-2.463 1.327a.528.528 0 0 0-.153.475v-.003l.191 1.114-1-.526a.515.515 0 0 0-.504.003l.003-.001.003-.001-1 .526.191-1.114a.534.534 0 0 0-.152-.471l-.811-.79 1.119-.162a.537.537 0 0 0 .401-.289l.001-.003.5-1.013.5 1.013a.535.535 0 0 0 .399.292h.003l1.119.162-.809.79zm-3.377 14.671h-1.067v1.067h1.067v-1.067zm0 2.134h-1.067v1.066h1.067v-1.066zm1.066-1.067h-1.067v1.067H27.2v-1.067zm-2.133 0H24v1.067h1.067v-1.067zm-2.667 4.8h-1.067v1.067H22.4v-1.067zm0 2.134h-1.067v1.067H22.4v-1.067zm1.067-1.067H22.4v1.067h1.067v-1.067zm-2.133 0h-1.067v1.067h1.067v-1.067zM16 24.256h-1.066v1.067H16v-1.067zm0 2.133h-1.066v1.067H16v-1.067zm1.067-1.067H16v1.067h1.067v-1.067zm-2.133 0h-1.067v1.067h1.067v-1.067zm-9.067-19.2H4.801v1.066h1.066V6.122zm0 2.134H4.801v1.066h1.066V8.256zm1.066-1.067H5.866v1.067h1.066V7.189zm-2.133 0H3.733v1.067H4.8V7.189z"/>
      <path fill="#212121" style="fill:var(--color1, #212121)" d="M24.715 14.16a1.774 1.774 0 0 0-1.169-.702l-.01-.001-.009-.001a1.759 1.759 0 0 0-1.348.358l.004-.003.004-.003-1.253.96-1.898 1.417-1.358-.541c2.421-1.086 4.113-3.508 4.113-6.32 0-3.823-3.122-6.934-6.961-6.934S7.869 5.5 7.869 9.324c0 1.386.415 2.674 1.12 3.759l-2.768-.024c-.009 0-.016.005-.023.005a.53.53 0 0 0-.162.034l.003-.001.004-.001c-.013.005-.026.007-.038.013-.006.003-.013.003-.019.006l-3.234 1.597-1.893.91a.593.593 0 0 0-.067.037l.002-.001.001-.001a1.783 1.783 0 0 0-.589 2.316l-.005-.01-.005-.01c.22.424.592.742 1.043.885l.013.003a1.763 1.763 0 0 0 1.397-.137l-.009.005-.009.005 1.388-.738 2.264-1.169 1.357-.008-6.782 6.749a1.638 1.638 0 0 0-.491 1.171v.007a1.668 1.668 0 0 0 1.667 1.664h.005c.459 0 .875-.185 1.177-.485l1.314-1.309 1.741-1.3.901.897-3.102 3.088a1.638 1.638 0 0 0-.491 1.171v.008c0 .918.744 1.662 1.662 1.662h.01c.459 0 .875-.185 1.177-.485l4.488-4.472c.007-.006.016-.009.022-.016l5.166-5.658 3.471.494a.477.477 0 0 0 .265-.033l-.003.001c.017-.006.032-.015.049-.023.019-.01.039-.015.058-.027l3.213-2.133c.012-.008.018-.021.029-.03.013-.01.029-.014.041-.026l1.271-1.191c.348-.326.564-.787.564-1.3 0-.4-.132-.769-.355-1.066l.003.005zM2.13 17.77a.694.694 0 0 1-.569.049l.005.002.005.001a.718.718 0 0 1-.217-1.257l.002-.001.002-.001 1.314-.632.449 1.313-.992.527zm3.497-1.828-1.548.8-.255-.746-.184-.537 2.027-1.001-.04 1.484zm15.1-6.62c0 .918-.219 1.785-.599 2.56l-4.181-1.899a1.867 1.867 0 0 0-.776-1.38l-.006-.004-.006-.004 1.464-4.861c2.377.757 4.104 2.975 4.104 5.588zm-11.789 0c0-3.235 2.644-5.867 5.894-5.867.253 0 .5.022.745.053l-1.432 4.753c-.019 0-.037-.006-.057-.006h-.001a1.872 1.872 0 0 0-1.872 1.867 1.873 1.873 0 0 0 1.872 1.867h.001c.695 0 1.295-.383 1.618-.944l3.863 1.755a5.888 5.888 0 0 1-4.737 2.39c-3.25 0-5.894-2.632-5.894-5.867zm5.957.8c0 .441-.362.8-.806.8h-.001a.804.804 0 0 1-.804-.8c0-.441.361-.8.806-.8s.806.359.806.8zM2.464 25.146a.606.606 0 0 1-.855.001.59.59 0 0 1 0-.844l.962-.959.852.848-.959.954zm3.214 3.734a.606.606 0 0 1-.855.001.59.59 0 0 1 0-.844l.963-.959.852.848-.96.955zm3.482-3.469-.001.001-1.765 1.76-.852-.848 1.765-1.757a.525.525 0 0 0 .089-.133l.001-.003c.007-.014.02-.026.026-.04.016-.041.019-.085.026-.128.003-.025.014-.048.014-.073 0-.035-.013-.07-.02-.105-.006-.032-.006-.064-.019-.096a.563.563 0 0 0-.092-.138c-.01-.012-.014-.026-.025-.038h-.001l-.001-.002-1.607-1.6c-.017-.017-.039-.024-.058-.038a.576.576 0 0 0-.081-.055l-.003-.001-.003-.001a.481.481 0 0 0-.086-.03l-.004-.001-.003-.001a.559.559 0 0 0-.099-.02H6.334a.653.653 0 0 0-.078.005h.006c-.036.005-.069.009-.104.021s-.064.027-.094.045c-.02.011-.043.015-.061.029l-1.774 1.324-.901-.897 2.399-2.386 4.36 4.289-.928.919zm6.819-7.017c-.016-.002-.03.004-.046.003l-.027-.001a.494.494 0 0 0-.095.009h.006a.495.495 0 0 0-.189.071l.002-.001.002-.001a.481.481 0 0 0-.083.061c-.013.011-.028.016-.04.029l-4.698 5.146-4.328-4.256 2.833-2.818a.535.535 0 0 0-.378-.911h-.002l-2.219.013.028-1.607 3.104.027a6.906 6.906 0 0 0 4.97 2.101h.012c.438 0 .864-.046 1.28-.122.04.032.08.064.129.085l2.41.96.152.758.178.886-3.003-.427zm4.041.178-.313-1.558 1.446-1.08.946 1.257-2.08 1.381zm3.753-2.831-.837.785-.931-1.236.831-.637a.734.734 0 0 1 .547-.143h-.004c.352.049.62.348.621.71v.002a.708.708 0 0 1-.226.519z"/>
      <path fill="#212121" style="fill:var(--color1, #212121)" d="m13.602 18.544-2.143-2.134a.53.53 0 0 0-.752 0l-2.143 2.133a.535.535 0 0 0 0 .756l2.142 2.134a.53.53 0 0 0 .752 0l2.143-2.134a.531.531 0 0 0 0-.756zm-2.519 1.759-1.387-1.381 1.386-1.381 1.387 1.381-1.387 1.381zm6.081-15.232-.258 1.036c.071.018 1.738.452 1.738 2.149h1.067c0-2.017-1.666-2.965-2.547-3.184zm2.547 4.251h-1.067v1.066h1.067V9.322z"/>
    </symbol>
    <symbol id="icon-clock" viewBox="0 0 32 32">
      <path fill="#212121" style="fill:var(--color1, #212121)" d="M31.296 15.301C31.295 6.849 24.441-.002 15.988 0S.685 6.855.687 15.308c.002 6.788 4.422 12.543 10.541 14.545l.108.031a.662.662 0 0 0 .532-.066l-.003.002a.64.64 0 0 0 .282-.352l.001-.005 3.865-12.25a1.912 1.912 0 1 0-.864-3.625l.022-.01-5.106-5.107a.638.638 0 0 0-.902.902l5.103 5.109c-.12.239-.191.52-.191.818v.008c0 .602.283 1.137.723 1.48l.004.003-3.682 11.673C3.842 25.783.116 17.71 2.796 10.432S13.55-.572 20.828 2.109c7.278 2.681 11.004 10.754 8.323 18.032-1.345 3.581-4.003 6.406-7.374 7.938l-.088.036-.398-1.874a.64.64 0 0 0-1.051-.342l.001-.001.001-.001-3.837 3.426a.635.635 0 0 0 .222 1.082l.005.001.005.001 4.899 1.563a.637.637 0 0 0 .817-.748l.001.004.001.004-.391-1.839c5.528-2.374 9.329-7.772 9.329-14.057v-.032zm-15.304-.637a.638.638 0 0 1 0 1.276.638.638 0 0 1 0-1.276zm2.1 14.864 2.184-1.948.603 2.84-2.787-.892z"/>
      <path fill="#2196f3" style="fill:var(--color2, #2196f3)" d="M15.354 3.185V4.46a.638.638 0 0 0 1.276 0V3.185a.638.638 0 0 0-1.276 0zM3.876 14.664a.638.638 0 0 0 0 1.276h1.275a.638.638 0 0 0 0-1.276H3.876zm24.232 1.275a.638.638 0 0 0 0-1.276h-1.275a.638.638 0 0 0 0 1.276h1.275z"/>
    </symbol>
    <symbol id="icon-company1" viewBox="0 0 32 32">
      <path d="m6.085 0 4.771 4.517-8.857-.005v21.915h23.149v-8.379l4.766 4.512V.001H6.084zm18.854 17.517L11.411 4.71h13.528v12.807zm-4.2 5.703H5.663V8.482h1.066v13.74H20.74v.997zM9.224 29.345l-.557 1.147-.557-1.147h-.467l.813 1.529v.891h.422v-.891l.811-1.529h-.465zm.7 2.42.196-.564h.938l.197.564h.439l-.916-2.42H10.4l-.914 2.42h.437zm.664-1.906.351 1.004h-.701l.351-1.004zm2.218.945a.54.54 0 0 0-.091.301v.006c0 .204.072.37.214.497s.336.19.575.19h.024c.223 0 .43-.073.596-.197l-.003.002.136.161h.468l-.355-.421c.14-.191.209-.435.209-.733h-.351v.012a.958.958 0 0 1-.104.437l.003-.006-.468-.552.165-.12a.918.918 0 0 0 .247-.246l.002-.003.002-.003a.52.52 0 0 0 .076-.273v-.017a.495.495 0 0 0-.168-.372h-.002a.61.61 0 0 0-.408-.157h-.024c-.195 0-.35.056-.465.166s-.173.259-.173.449c0 .078.018.157.054.241.038.083.104.184.197.302-.179.129-.3.24-.36.334zm1.092.536a.613.613 0 0 1-.382.136h-.021a.395.395 0 0 1-.27-.106.356.356 0 0 1-.108-.257v-.015c0-.129.067-.245.2-.346l.052-.037.528.624zm-.434-1.073c-.114-.141-.172-.257-.172-.351 0-.081.024-.148.07-.201a.239.239 0 0 1 .178-.081h.018c.067 0 .127.026.173.068a.213.213 0 0 1 .072.16V29.872a.3.3 0 0 1-.103.226l-.052.041-.184.127zm3.94 1.315c.166-.145.261-.347.286-.605h-.419c-.022.173-.075.296-.158.37s-.208.112-.372.112c-.18 0-.318-.069-.412-.206s-.14-.337-.14-.599v-.214c.003-.259.052-.453.15-.587a.493.493 0 0 1 .398-.202l.025.001h-.001c.157 0 .276.039.357.116s.133.202.153.376h.419c-.027-.265-.121-.47-.285-.615s-.378-.218-.645-.218h-.017a.97.97 0 0 0-.512.145l.004-.002a.943.943 0 0 0-.343.39l-.002.006-.002.006a1.376 1.376 0 0 0-.122.571v.261c.003.223.045.418.125.587s.193.298.339.39a.94.94 0 0 0 .492.136h.02-.001c.276 0 .497-.072.663-.216zm2.471-.339c.082-.18.123-.388.123-.625v-.158c0-.216-.047-.421-.131-.605l.004.009a.948.948 0 0 0-.346-.404l-.004-.002-.004-.002c-.152-.095-.326-.143-.524-.143s-.372.048-.525.144a.953.953 0 0 0-.352.408l-.002.006c-.079.175-.125.38-.125.595v.166c.001.232.043.436.126.613a.962.962 0 0 0 .352.409l.004.002c.145.09.321.143.51.143h.016-.001.018a.962.962 0 0 0 .512-.146l-.004.002a.958.958 0 0 0 .35-.407l.002-.006zm-.45-1.369c.102.143.152.349.152.618v.126c0 .272-.05.48-.151.622a.489.489 0 0 1-.405.214l-.026-.001h.001-.017a.504.504 0 0 1-.412-.214l-.001-.002-.001-.002c-.104-.145-.155-.351-.155-.617v-.14c.002-.26.054-.462.156-.603a.498.498 0 0 1 .409-.215h.017c.187 0 .33.072.431.214z"/>
    </symbol>
    <symbol id="icon-company2" viewBox="0 0 32 32">
      <path d="M14.032 1.806h-.084a9.502 9.502 0 0 0-.379-.014H13.28c-.244 0-.494.006-.741.018l-.028-.001-.029.001h.001a17.317 17.317 0 0 0-6.678 1.741l.102-.045.104-.045-.266.128v13.626l.623-.212c.404-.148.982-.323 1.569-.477l.162-.036c1.488-.398 3.202-.638 4.967-.661h.014v1.79c-.223.001-.439.007-.655.018h-.052a20.164 20.164 0 0 0-4.111.651l.14-.032.139-.031a19.349 19.349 0 0 0-4.764 1.88l.098-.05.1-.051V2.529A17.523 17.523 0 0 1 8.515.636L8.767.58a17.412 17.412 0 0 1 4.509-.582h.268c.314.008.622.022.91.044.829.06 1.597.187 2.339.378l-.09-.02v1.762a12.568 12.568 0 0 0-2.092-.324l-.042-.002-.045-.003-.044-.004c-.152-.013-.304-.026-.446-.026zm3.101 1.801c.391.03.796.044 1.205.044a19.422 19.422 0 0 0 5.017-.67l-.136.031-.135.03a19.43 19.43 0 0 0 4.764-1.882l-.099.051-.101.051v17.163a17.586 17.586 0 0 1-4.539 1.893l-.125.028-.127.028a17.55 17.55 0 0 1-4.51.581h-.116c-1.177 0-2.319-.147-3.409-.425l.095.021V3.276c.265.062.537.118.814.164.455.077.934.133 1.401.167zm8.734.133-.623.209c-.572.193-1.151.365-1.731.518-1.551.415-3.332.657-5.169.663h-.004c-.406 0-.78-.011-1.141-.034l-.497-.033V19.08l.426.037c.395.035.803.052 1.214.052a16.59 16.59 0 0 0 4.305-.58l-.116.027-.116.026a16.852 16.852 0 0 0 3.384-1.233l-.099.044-.102.044.266-.128V3.739zM5.184 25.977a.915.915 0 0 0-.66-.281h-.001l-.034.001h-.012c-.139 0-.272.028-.393.078l.007-.003a.909.909 0 0 0-.508.506l-.002.006-.002.006a.985.985 0 0 0-.071.371v.016-.001 2.335c-.006.164.026.328.092.479.055.12.135.226.234.313a.83.83 0 0 0 .314.165l.006.001c.114.031.231.048.349.048a.985.985 0 0 0 .968-.982v-.261H4.86v.222c0 .07-.013.136-.037.198l.001-.004a.37.37 0 0 1-.089.132.423.423 0 0 1-.255.089.31.31 0 0 1-.286-.124l-.001-.001-.001-.001a.548.548 0 0 1-.082-.288v-.001l.001-.024v.001-2.201c0-.118.028-.23.077-.33l-.002.004a.31.31 0 0 1 .261-.143h.001l.038.002h.011c.107 0 .201.052.26.131l.001.001a.49.49 0 0 1 .101.299v.216h.604v-.249c0-.143-.027-.28-.077-.405l.003.007a.955.955 0 0 0-.205-.329zm3.626-.026a1.045 1.045 0 0 0-1.065-.189l.007-.002a.973.973 0 0 0-.555.505l-.002.006-.002.006a1.07 1.07 0 0 0-.089.43v.023-.001 2.239c-.004.158.026.314.089.458a.906.906 0 0 0 .235.312l.001.001c.09.084.197.15.315.195l.007.002a1.046 1.046 0 0 0 1.06-.199l-.001.001-.001.001a.958.958 0 0 0 .228-.307l.002-.006c.063-.144.093-.301.089-.458v-2.259c0-.156-.033-.305-.092-.439l.003.007a1.027 1.027 0 0 0-.23-.327zm-.285 3.018.002.035v.001a.398.398 0 0 1-.123.288.446.446 0 0 1-.575-.001l.001.001.001.001a.398.398 0 0 1-.123-.288l.002-.04v.004-2.239l-.001-.034c0-.113.047-.216.123-.288a.446.446 0 0 1 .575.001l-.001-.001-.001-.001a.398.398 0 0 1 .123.288l-.002.04v-.004 2.24zm5.047 1v-4.24h-.586l-.771 2.244h-.01l-.777-2.244h-.58v4.239h.606V27.39h.011l.593 1.823h.302l.598-1.823h.01v2.578h.606zm3.441-3.942a.832.832 0 0 0-.336-.23l-.006-.002a1.283 1.283 0 0 0-.411-.066h-.929v4.24h.604v-1.656h.311c.189.009.376-.031.545-.116a.894.894 0 0 0 .327-.316l.002-.004.002-.004a.981.981 0 0 0 .137-.363l.001-.006c.021-.133.033-.287.033-.444v-.038l.001-.07c0-.19-.022-.375-.063-.553l.003.016a.906.906 0 0 0-.223-.39zm-.312 1.292a.552.552 0 0 1-.058.227l.001-.003.001-.003a.346.346 0 0 1-.152.146l-.002.001-.002.001a.608.608 0 0 1-.252.054h-.002l-.033-.001h-.274V26.3h.311l.029-.001c.088 0 .172.02.247.055l-.004-.002c.061.036.11.089.14.152l.001.002.001.002c.032.069.051.15.053.235v.283c0 .098.006.201 0 .291H16.7zm3.173-1.59h-.495l-.934 4.24h.604l.177-.911h.823l.178.911h.604l-.958-4.24zm-.557 2.752.297-1.537h.011l.295 1.537h-.604zm4.46-.198h-.011l-.912-2.554h-.581v4.24h.604v-2.55h.012l.923 2.549h.568v-4.239h-.604v2.554zm3.691-2.554-.486 1.686h-.012l-.486-1.686h-.639l.83 2.448v1.791h.604v-1.791l.83-2.447h-.64zM3.5 31.166h.291v.817h.198v-.817h.289v-.167H3.5v.168zm2.447-.168-.382.985h.21l.081-.224h.392l.084.224h.215l-.391-.985h-.21zm-.03.595.134-.365.134.365h-.268zm2.449.027h.228v.127a.38.38 0 0 1-.234.083h-.014a.252.252 0 0 1-.195-.093.4.4 0 0 1-.073-.232v-.002l.001-.023v.001c0-.219.095-.329.283-.329l.021-.001c.097 0 .178.067.201.157v.001l.194-.038c-.042-.192-.18-.289-.417-.289H8.347a.49.49 0 0 0-.33.127.48.48 0 0 0-.143.341l.002.04v-.004.023c0 .132.048.254.127.347l-.001-.001c.087.09.209.146.343.146L8.377 32h.015c.155 0 .296-.06.402-.157v-.388h-.426v.166zm2.471-.622h-.199v.985h.689v-.167h-.49v-.817zm2.089 0h-.199v.985h.199v-.985zm2.043.657-.404-.657h-.193v.985h.185v-.643l.396.643h.198v-.985h-.182v.658zm1.846-.106h.49v-.167h-.49v-.215h.527v-.168h-.727v.985h.747v-.167h-.548v-.266zm4.477-.163h-.388v-.388h-.197v.984h.197v-.431h.388v.431h.198v-.985h-.198v.388zm1.857.163h.492v-.167h-.492v-.215h.529v-.168h-.726v.985h.746v-.167h-.548v-.266zm2.519.001c.171-.027.258-.118.258-.274a.23.23 0 0 0-.095-.219h-.002a.55.55 0 0 0-.249-.059h-.001l-.04.001h-.415v.984h.198v-.412h.055c.039 0 .076.008.109.023l-.002-.001a.195.195 0 0 1 .069.071l.001.001.215.313h.236l-.12-.192a.692.692 0 0 0-.213-.233l-.002-.002-.002-.002zm-.199-.137h-.146v-.247h.156a.5.5 0 0 1 .209.025l-.004-.001-.004-.001a.13.13 0 0 1-.008.2.52.52 0 0 1-.162.025h-.002l-.039-.001h.002zm2.099.136h.49v-.167h-.49v-.215h.529v-.168h-.729v.985h.747v-.167h-.548v-.266z"/>
    </symbol>
    <symbol id="icon-company3" viewBox="0 0 32 32">
      <path d="M5.311 30.414c.011 0 .023.003.033.008s.02.01.028.017l.156.149a1.298 1.298 0 0 1-.44.284c-.172.065-.37.103-.577.103h-.007l-.042-.001h.002-.034c-.198 0-.387-.035-.563-.099l.011.004a1.275 1.275 0 0 1-.443-.27l.001.001.001.001a1.216 1.216 0 0 1-.28-.399l-.003-.008-.003-.008a1.337 1.337 0 0 1-.1-.511V29.637c0-.365.158-.694.41-.92l.001-.001c.132-.115.288-.207.459-.267l.01-.003c.174-.06.376-.095.585-.095H4.573c.187 0 .367.032.535.09l-.011-.004c.155.058.297.14.421.24l-.131.159a.143.143 0 0 1-.032.028h-.002a.087.087 0 0 1-.045.012H5.3a.127.127 0 0 1-.059-.017h.002l-.07-.043-.098-.055a1.057 1.057 0 0 0-.296-.093l-.006-.001-.007-.001a1.237 1.237 0 0 0-.209-.017h-.039c-.151 0-.295.026-.428.074l.008-.003a1.02 1.02 0 0 0-.343.202l.001-.001.001-.001a.928.928 0 0 0-.219.313l-.002.006c-.051.119-.08.257-.08.402v.038c0 .148.029.289.083.418l-.003-.008a.9.9 0 0 0 .536.514l.006.002c.128.046.264.069.402.068.08.001.16-.004.239-.013a.952.952 0 0 0 .518-.22l-.001.001a.123.123 0 0 1 .073-.027zm4.516-.751v.016c0 .185-.039.361-.109.52l.003-.008a1.18 1.18 0 0 1-.292.409l-.001.001-.001.001c-.13.116-.284.207-.453.266l-.009.003a1.908 1.908 0 0 1-1.217-.008l.013.004.013.004a1.408 1.408 0 0 1-.462-.272l.001.001.001.001a1.215 1.215 0 0 1-.292-.399l-.003-.008-.003-.008a1.37 1.37 0 0 1 .008-1.076l-.003.009-.004.009c.067-.155.168-.296.297-.416.129-.112.282-.201.45-.258l.01-.003a1.898 1.898 0 0 1 1.216.007l-.013-.004-.013-.004c.173.061.33.152.461.269.247.224.402.546.402.905l-.001.038v-.002zm-.411 0v-.025c0-.147-.028-.287-.08-.416l.003.008.003.008a.886.886 0 0 0-.527-.514l-.006-.002-.007-.002a1.354 1.354 0 0 0-.882.006l.01-.003.009-.003a.947.947 0 0 0-.332.202.862.862 0 0 0-.208.306l-.002.006-.002.006a1.226 1.226 0 0 0 .006.866l-.006-.017a.87.87 0 0 0 .536.515l.007.002c.279.091.585.091.864 0a.917.917 0 0 0 .33-.199.879.879 0 0 0 .207-.312l.002-.006c.053-.136.077-.28.074-.424zm3.492.445.04.095c.016-.034.029-.065.045-.095a1.06 1.06 0 0 1 .053-.097l-.002.004.999-1.578c.02-.027.038-.044.057-.05s.044-.008.069-.008h.309v2.568h-.35V28.98a.621.621 0 0 1 0-.092v.004l-1.006 1.601a.151.151 0 0 1-.058.057h-.002a.17.17 0 0 1-.085.022h-.061a.17.17 0 0 1-.084-.022h.002a.142.142 0 0 1-.057-.057v-.002l-1.034-1.61v2.06h-.338v-2.562h.309c.024 0 .048.003.071.009h-.002c.024.01.043.028.055.05l1.02 1.579a.468.468 0 0 1 .05.088l.001.004zm3.76-.127v.961h-.39v-2.563h.872c.165-.003.328.017.487.056a.987.987 0 0 1 .344.16c.084.066.15.151.193.247l.002.004a.762.762 0 0 1 .067.328v.017a.71.71 0 0 1-.28.565l-.002.001-.002.001a1.006 1.006 0 0 1-.339.168l-.007.002c-.132.038-.283.06-.44.06h-.033l-.472-.008zm0-.276h.473c.103.002.205-.012.303-.039a.665.665 0 0 0 .222-.113l-.001.001-.002.001a.491.491 0 0 0 .18-.38v-.007l.001-.027v-.002a.421.421 0 0 0-.042-.184l.001.003.001.003a.503.503 0 0 0-.135-.173l-.001-.001-.001-.001a.827.827 0 0 0-.532-.137h.003-.471v1.056zm5.256 1.241h-.316a.138.138 0 0 1-.08-.025h.001a.144.144 0 0 1-.05-.057v-.002l-.265-.619h-1.336l-.276.619a.147.147 0 0 1-.132.083h-.314l1.173-2.568h.407l1.189 2.568zm-1.936-.954h1.103l-.465-1.045a1.624 1.624 0 0 1-.085-.228l-.003-.012-.045.134a.874.874 0 0 1-.045.114l.002-.005-.461 1.043zm3.625-1.6a.162.162 0 0 1 .058.045l1.711 1.935V28.38h.35v2.568h-.2a.185.185 0 0 1-.078-.017h.002a.208.208 0 0 1-.062-.047l-1.709-1.933.001.044-.002.046v-.002 1.908h-.35v-2.568h.207c.024 0 .048.005.071.012zm5.001 1.533v1.019h-.391v-1.018l-1.081-1.546h.359c.028 0 .054.008.077.022h-.002a.234.234 0 0 1 .052.057l.001.001.676.998c.046.065.086.14.118.219l.003.007.05-.11a.978.978 0 0 1 .067-.117l.667-1.004a.284.284 0 0 1 .049-.054.127.127 0 0 1 .077-.025h.361l-1.082 1.553zm-15.9-5.853c.17.019.342.034.517.047 2.638-1.026 4.87-2.703 6.417-4.824s2.339-4.591 2.279-7.102l-2.908-2.525c.592 2.673.315 5.435-.798 7.979s-3.019 4.769-5.505 6.425z"/>
      <path d="m11.677 23.954.078.014c2.656-1.652 4.68-3.956 5.813-6.617s1.32-5.557.537-8.311l-4.141-3.597c1.674 2.957 2.349 6.267 1.944 9.544s-1.872 6.387-4.231 8.968zm14.043-8.795c-.703 2.759-2.412 5.246-4.872 7.095-.647.495-1.376.96-2.144 1.362l-.084.04-.087.04c2.004-.511 3.845-1.416 5.382-2.643s2.73-2.745 3.485-4.437l-1.679-1.458z"/>
      <path d="m25.062 14.752-2.391-2.077c-.046 2.369-.821 4.683-2.245 6.703s-3.445 3.672-5.851 4.785h.011c.536 0 1.072-.028 1.605-.083 2.249-.798 4.237-2.068 5.784-3.695s2.608-3.562 3.085-5.633zM12.023 3.925 9.17 1.444C6.62 2.3 4.427 3.805 2.877 5.762s-2.382 4.275-2.39 6.65c.009 2.625 1.026 5.172 2.889 7.238s4.465 3.533 7.396 4.169c2.616-2.769 4.148-6.191 4.373-9.768s-.87-7.125-3.124-10.125zM31.652 14.37c-.01-3.113-1.438-6.097-3.973-8.299s-5.969-3.443-9.553-3.452H18.1c-1.723 0-3.379.287-4.923.816l.107-.032 17.464 15.174c.569-1.236.902-2.681.904-4.205v-.001z"/>
    </symbol>
    <symbol id="icon-company4" viewBox="0 0 32 32">
      <path d="M4.931 13.038H4.93c-.899 0-1.629.648-1.629 1.447v.001c0 .8.729 1.447 1.629 1.447h.001c.899 0 1.629-.648 1.629-1.447v-.001c0-.8-.729-1.448-1.629-1.448zm12.021-.463c-.002-1.11-.5-2.175-1.383-2.96s-2.081-1.227-3.329-1.23c-1.25.002-2.448.444-3.331 1.229s-1.381 1.85-1.384 2.96v6.123s9.428-.933 9.429-6.121v-.001zM0 20.707c.002.773.349 1.513.963 2.059s1.447.854 2.317.856c.869-.002 1.702-.31 2.317-.856s.961-1.286.963-2.058v-4.26s-6.559.65-6.559 4.259zm3.28.764a.944.944 0 0 1-.477-.128.8.8 0 0 1-.312-.333l-.002-.005-.002-.004a.677.677 0 0 1-.047-.45l-.001.005-.001.004a.737.737 0 0 1 .234-.39l.001-.001a.884.884 0 0 1 .429-.207l.005-.001.005-.001a.943.943 0 0 1 .51.048l-.007-.002-.006-.002c.157.058.291.156.385.281a.706.706 0 0 1 .081.717.775.775 0 0 1-.184.247l-.001.001h-.001a.868.868 0 0 1-.273.164l-.006.002a.922.922 0 0 1-.326.059h-.003v-.003zm6.629-.421h-.633v.654h-.33v-1.601h1.042v.267h-.712v.414h.633v.266zm1.584-.11c0 .158-.028.295-.083.414a.627.627 0 0 1-.582.372h-.014a.64.64 0 0 1-.593-.361l-.002-.004-.001-.004a.913.913 0 0 1-.087-.392v-.096c0-.158.029-.296.085-.416a.634.634 0 0 1 .577-.373h.021-.001a.638.638 0 0 1 .596.373.948.948 0 0 1 .086.414v.071zm-.333-.073c0-.168-.03-.295-.09-.383a.294.294 0 0 0-.244-.131h-.014.001-.012a.295.295 0 0 0-.243.128l-.001.001-.001.001c-.06.086-.091.212-.091.378v.078c0 .163.03.29.09.38s.146.135.259.135h.013a.29.29 0 0 0 .24-.127l.001-.001.001-.001c.059-.087.089-.214.09-.381v-.078zm1.403.417.001-.009a.167.167 0 0 0-.065-.133h-.001a.82.82 0 0 0-.237-.105 1.64 1.64 0 0 1-.29-.119l.009.005.009.004c-.182-.098-.273-.231-.273-.397a.39.39 0 0 1 .072-.231.474.474 0 0 1 .207-.158l.003-.001c.092-.038.194-.057.308-.057s.216.021.306.063a.478.478 0 0 1 .206.173l.001.002a.45.45 0 0 1 .075.25v.007h-.33v-.013a.214.214 0 0 0-.069-.157.282.282 0 0 0-.194-.062.298.298 0 0 0-.188.052.16.16 0 0 0-.067.13v.004c0 .052.026.096.078.131s.13.068.232.098c.188.056.324.127.41.21s.129.188.129.312c0 .138-.053.248-.158.326s-.245.118-.423.118a.833.833 0 0 1-.336-.067.552.552 0 0 1-.23-.182l-.001-.002-.001-.001a.473.473 0 0 1-.079-.262v-.011h.33c0 .176.105.265.317.265h.018a.306.306 0 0 0 .167-.049l-.001.001a.157.157 0 0 0 .066-.127v-.006zm1.759-.913h-.49v1.333h-.33v-1.333h-.483v-.267h1.303v.267zm1.152.64h-.633v.429h.743v.265h-1.072v-1.601h1.07v.267h-.741v.382h.633v.258zm.895.107h-.262v.586h-.33v-1.601h.595c.189 0 .335.042.437.127s.154.203.154.357v.018a.488.488 0 0 1-.073.257l.001-.002a.481.481 0 0 1-.208.171l-.003.001-.003.001.346.654v.015h-.353l-.3-.585zm-.262-.267h.266a.277.277 0 0 0 .192-.062.227.227 0 0 0 .068-.162v-.013c0-.076-.021-.135-.064-.178s-.108-.065-.197-.065h-.265v.48zm1.998.289v.564h-.33v-1.601h.624c.12 0 .226.022.317.066a.481.481 0 0 1 .21.186l.001.002a.52.52 0 0 1 .073.276c0 .157-.054.281-.161.371s-.256.135-.445.135h-.289zm0-.267h.294c.088 0 .154-.021.199-.062a.223.223 0 0 0 .07-.162v-.014.001V20.623a.258.258 0 0 0-.07-.178.26.26 0 0 0-.182-.075h-.311v.503zm2.085.138h-.633v.429h.743v.265h-1.072v-1.601h1.07v.267h-.741v.382h.633v.258zm1.53-.64h-.49v1.333h-.33v-1.333h-.483v-.267h1.304v.267zm1.152.64h-.633v.429h.743v.265h-1.073v-1.601h1.07v.267h-.74v.382h.633v.258zm.895.107h-.262v.586h-.33v-1.601h.595c.189 0 .335.042.437.127s.154.203.154.357a.498.498 0 0 1-.071.274.481.481 0 0 1-.208.171l-.003.001-.003.001.346.654v.015h-.353l-.3-.585zm-.262-.267h.266a.275.275 0 0 0 .192-.062.227.227 0 0 0 .068-.162V20.6a.236.236 0 0 0-.066-.164c-.042-.043-.108-.065-.196-.065h-.265v.48zm1.937.433v-.009a.168.168 0 0 0-.066-.133.82.82 0 0 0-.237-.105 1.64 1.64 0 0 1-.29-.119l.009.005.009.004c-.182-.098-.273-.231-.273-.397 0-.086.025-.163.072-.231a.474.474 0 0 1 .207-.158l.003-.001c.092-.038.194-.057.308-.057s.216.021.306.063a.478.478 0 0 1 .206.173l.001.002a.45.45 0 0 1 .075.25v.007h-.33v-.013a.214.214 0 0 0-.069-.157.282.282 0 0 0-.194-.062.298.298 0 0 0-.188.052.16.16 0 0 0-.067.13v.003c0 .052.026.096.078.131s.13.068.232.098c.188.056.324.127.41.21s.128.188.128.312c0 .138-.053.248-.158.326s-.246.118-.423.118a.833.833 0 0 1-.336-.067.552.552 0 0 1-.23-.182l-.001-.002-.001-.001a.473.473 0 0 1-.079-.262v-.011h.33c0 .176.105.265.317.265h.018a.308.308 0 0 0 .167-.049l-.001.001a.157.157 0 0 0 .066-.127v-.007z"/>
    </symbol>
    <symbol id="icon-company5" viewBox="0 0 32 32">
      <path d="M2.41 23.719a.727.727 0 0 1 .186.487v.009a.722.722 0 0 1-.07.351l.002-.004.002-.004a.788.788 0 0 1-.219.28l-.001.001-.002.002a1.31 1.31 0 0 1-.846.227h.004-1.467v-3.136H1.44a1.303 1.303 0 0 1 .809.214l-.005-.003-.005-.003a.74.74 0 0 1 .213.259l.002.004a.658.658 0 0 1 .065.287l-.001.039v-.002l.001.03c0 .172-.064.33-.169.45l.001-.001a.8.8 0 0 1-.439.246.851.851 0 0 1 .496.269zm-1.725-.473h.616l.043.001c.13 0 .251-.039.351-.107l-.002.001a.39.39 0 0 0 .103-.135l.001-.002.001-.002a.334.334 0 0 0 .028-.136v-.002l-.002-.031v.002l.001-.026v-.001c0-.051-.011-.1-.031-.144l.001.002.001.002a.386.386 0 0 0-.102-.139h-.001l-.001-.001a.621.621 0 0 0-.352-.108l-.056.002h.002-.604v.823zm1.068 1.203a.405.405 0 0 0 .111-.139l.001-.002.001-.002a.339.339 0 0 0 .033-.148v-.002l-.001-.026v.002l.001-.023a.363.363 0 0 0-.036-.158l.001.002.001.002a.391.391 0 0 0-.114-.143l-.001-.001-.001-.001a.662.662 0 0 0-.374-.115l-.048.002h.002-.644v.863h.655l.038.001c.14 0 .27-.041.379-.111l-.003.002zm3.603.619-.801-1.226h-.301v1.226h-.69v-3.137H4.87a1.346 1.346 0 0 1 .915.272l-.003-.002-.004-.002c.19.174.309.422.313.697v.001a.935.935 0 0 1-.217.601l.002-.002c-.161.165-.373.28-.611.317l-.012.002.854 1.253h-.75zm-1.103-1.654h.564c.391 0 .588-.158.588-.475l.001-.025v-.001a.416.416 0 0 0-.035-.169l.001.003.001.003a.467.467 0 0 0-.111-.162.64.64 0 0 0-.449-.127h.003-.569l.007.955zm4.872 1.022H7.751l-.243.632h-.723l1.261-3.102h.782l1.257 3.102h-.723l-.237-.631zm-.184-.475-.502-1.324-.502 1.324h1.004zm4.902 1.107h-.684l-1.535-2.133v2.133h-.683v-3.137h.683l1.535 2.146v-2.145h.684v3.137zm3.907-.751a1.434 1.434 0 0 1-.62.554 2.12 2.12 0 0 1-.902.199h-.006l-.056-.001h-1.218v-3.137l1.276-.001c.328 0 .639.071.919.199l-.014-.006c.262.121.478.312.619.547a1.698 1.698 0 0 1 0 1.646zm-.783-.075c.186-.194.301-.458.302-.749 0-.275-.107-.54-.302-.749a1.24 1.24 0 0 0-.865-.266h.004-.472v2.031h.476a1.253 1.253 0 0 0 .863-.27l-.003.002-.003.002zM9.554 4.481s8.836 3.054 8.648 7.474v7.475s-8.829-3.056-8.645-7.475l-.003-7.474zm16.52 13.2a12.642 12.642 0 0 1 5.563-1.89l.052-.004v-2.341c-2.322.82-4.292 2.306-5.614 4.235z"/>
      <path d="M25.072 18.387c1.366-2.518 3.734-4.461 6.617-5.43V6.214s-12.583 4.35-12.318 10.645v10.643s.561-.194 1.443-.56c0-.34 0-.683.04-1.028.26-2.922 1.777-5.629 4.217-7.527z"/>
      <path d="M23.875 22.34c.074-.805.23-1.545.461-2.251l-.02.072c-1.52 1.639-2.44 3.673-2.631 5.817a8.748 8.748 0 0 0-.034.613 32.828 32.828 0 0 0 2.806-1.359l-.184.092-.203.099a9.865 9.865 0 0 1-.237-2.174c0-.32.015-.636.044-.949l-.003.04zm.5.038a9.737 9.737 0 0 0 .178 2.917l-.012-.064-.011-.063c3.438-1.884 7.301-4.794 7.152-8.311v-.307c-2.457.252-4.754 1.235-6.541 2.798a9.308 9.308 0 0 0-.761 2.954l-.003.037-.003.038z"/>
    </symbol>
    <symbol id="icon-company6" viewBox="0 0 32 32">
      <path d="M16.107 15.629a.985.985 0 0 1-.205-.682v.006-.98c0-.3.068-.528.204-.684s.37-.234.701-.233c.311 0 .533.066.663.199a.81.81 0 0 1 .196.586v.23h-.557v-.265c0-.07-.006-.138-.018-.204l.001.007a.222.222 0 0 0-.079-.135.313.313 0 0 0-.177-.053h-.001l-.025.001h.001l-.025-.001a.336.336 0 0 0-.19.058l.001-.001.001-.001a.261.261 0 0 0-.092.146v.004a1.11 1.11 0 0 0-.022.223v1.207a.608.608 0 0 0 .071.333.275.275 0 0 0 .108.08l.002.001h.002a.3.3 0 0 0 .147.019h-.002l.024.001a.302.302 0 0 0 .175-.056l-.001.001h-.001a.239.239 0 0 0 .083-.141v-.002c.013-.079.019-.159.017-.238v-.241h.557v.22l.002.06a.889.889 0 0 1-.197.559l.001-.002.001-.002c-.128.145-.346.218-.667.218s-.563-.078-.7-.239zm2.321.01c-.141-.153-.211-.374-.211-.668v-1.03c0-.291.07-.511.211-.661s.376-.224.706-.223c.328 0 .562.075.703.223s.212.37.212.661v1.03c0 .291-.071.514-.214.668s-.376.23-.7.23-.564-.078-.706-.229zm.965-.247a.564.564 0 0 0 .067-.305v-1.261l.001-.034a.562.562 0 0 0-.069-.271l.001.003.001.003a.268.268 0 0 0-.11-.081l-.002-.001h-.002a.288.288 0 0 0-.15-.017h.003c-.012-.002-.025-.002-.039-.002a.324.324 0 0 0-.113.021l.002-.001.002-.001a.286.286 0 0 0-.114.081.543.543 0 0 0-.067.299v1.267a.564.564 0 0 0 .067.305.369.369 0 0 0 .115.075l.002.001a.391.391 0 0 0 .291-.002l-.003.001-.003.001a.338.338 0 0 0 .118-.076v-.006zm1.326-2.304h.6l.451 1.9.462-1.9h.584l.059 2.743h-.432l-.046-1.906-.445 1.906h-.346l-.461-1.913-.043 1.913h-.436l.054-2.743zm2.828 0h.935c.538 0 .808.259.808.779 0 .497-.284.746-.851.745h-.318v1.219h-.577l.003-2.743zm.798 1.172a.443.443 0 0 0 .319-.088l-.001.001a.435.435 0 0 0 .083-.312v.002-.03a.879.879 0 0 0-.03-.225l.001.006a.211.211 0 0 0-.043-.076.248.248 0 0 0-.07-.054l-.001-.001h-.001a.591.591 0 0 0-.226-.045h-.001l-.032.001h-.223v.82h.224zm1.777-1.172h.619l.636 2.743h-.538l-.126-.632h-.553l-.129.632h-.546l.636-2.743zm.529 1.792-.216-1.152-.216 1.152h.431zm1.239-1.792h.404l.773 1.565v-1.565h.479v2.743h-.384l-.778-1.633v1.633h-.495l.001-2.743zm2.777 1.696-.642-1.693h.541l.392 1.088.368-1.088h.53l-.635 1.694v1.046h-.554v-1.046zM16.998 17.03v.143h-.471v1.115h-.197v-1.115h-.473v-.143h1.141zm1.476 1.258h-.157a.062.062 0 0 1-.038-.012.075.075 0 0 1-.025-.028l-.136-.299h-.653l-.136.299a.085.085 0 0 1-.021.034.072.072 0 0 1-.039.012h-.156l.577-1.258h.201l.584 1.253zm-.956-.467h.544l-.231-.512a.985.985 0 0 1-.04-.106l-.002-.006-.001-.007-.021.067-.021.053-.228.511zm1.95.343a.578.578 0 0 0 .206-.016l-.005.001a.6.6 0 0 0 .083-.023l.077-.031v-.283h-.233a.044.044 0 0 1-.029-.011l-.009-.01a.02.02 0 0 1-.003-.011v-.098h.448v.482a.827.827 0 0 1-.231.099l-.006.001-.006.001c-.048.012-.096.021-.144.026s-.107.008-.166.008h-.01a.864.864 0 0 1-.289-.049l.006.002a.712.712 0 0 1-.233-.133l.001.001.001.001a.623.623 0 0 1-.146-.192l-.002-.004-.001-.004a.603.603 0 0 1-.053-.251V17.652c0-.092.019-.18.053-.259l-.001.004a.564.564 0 0 1 .149-.199.681.681 0 0 1 .231-.13 1.076 1.076 0 0 1 .469-.036c.094.014.18.043.257.084l-.004-.002c.035.02.069.042.101.065l-.055.078a.053.053 0 0 1-.044.024.072.072 0 0 1-.036-.01.926.926 0 0 1-.064-.033l.004.002.003.002a.507.507 0 0 0-.07-.032l-.004-.001-.004-.001a.592.592 0 0 0-.097-.026l-.005-.001h-.004a.81.81 0 0 0-.135-.011h-.019a.706.706 0 0 0-.221.036l.005-.001a.438.438 0 0 0-.275.25l-.001.003-.001.003a.586.586 0 0 0 .002.428l-.001-.004-.001-.004a.488.488 0 0 0 .283.257c.074.022.151.03.229.025zm1.839-.02h.63v.143h-.822v-1.258h.197l-.004 1.115zm1.285.144h-.197V17.03h.197v1.258zm.735-1.252a.097.097 0 0 1 .03.022l.843.948-.001-.022.001-.023v.001-.938h.172v1.263h-.106a.09.09 0 0 1-.037-.008h.001a.103.103 0 0 1-.031-.024l-.843-.948v.978h-.165v-1.258h.103c.011 0 .022.002.032.006zm2.497-.006v.138h-.699v.416h.566v.133h-.566v.43h.699v.138h-.902V17.03h.902zM5.15 9.26l8.761 2.147v7.526L5.15 16.787V9.26zm-.563-.642v8.534l9.883 2.424v-8.533L4.587 8.619z"/>
      <path d="M9.885 23.537 0 21.111v-8.533l9.885 2.425v8.534zM4.751 9.163l8.646 2.121L9.72 14.46l-8.648-2.122 3.679-3.175zm-.164-.545L0 12.578l9.885 2.425 4.586-3.961-9.883-2.424zm5.854 14.439 4.031-3.481-4.031-.988v4.47z"/>
    </symbol>
    <symbol id="icon-diagram" viewBox="0 0 32 32">
      <path fill="#2196f3" style="fill:var(--color2, #2196f3)" d="M14.926 14.965h1.066v4.798h-1.066v-4.798zm4.264 2.132h1.066v2.665H19.19v-2.665zm-8.529 1.599h1.066v1.066h-1.066v-1.066zm-3.198-.533h1.066v1.599H7.463v-1.599z"/>
      <path fill="#212121" style="fill:var(--color1, #212121)" d="M1.599 28.291h25.586a1.6 1.6 0 0 0 1.599-1.599V24.56a1.6 1.6 0 0 0-1.599-1.599h-.533V9.667l3.028-2.868a1.608 1.608 0 1 0-.742-.752l-.004-.01-2.281 2.162v-1.23a1.6 1.6 0 0 0-1.599-1.599H3.731a1.6 1.6 0 0 0-1.599 1.599v15.992h-.533A1.6 1.6 0 0 0 0 24.56v2.132a1.6 1.6 0 0 0 1.599 1.599zM30.384 4.837a.533.533 0 0 1 0 1.066.533.533 0 0 1 0-1.066zM3.198 6.969c0-.294.239-.533.533-.533h21.323c.294 0 .533.239.533.533v2.239l-1.066 1.013V8.036a.534.534 0 0 0-.534-.534H4.798a.534.534 0 0 0-.534.533v13.327c0 .294.239.533.534.533h19.189a.534.534 0 0 0 .534-.533v-9.675l1.066-1.01V22.96H3.198V6.969zm4.798 6.93h-.005a1.6 1.6 0 1 0 1.112 2.748l1.853.93a.535.535 0 0 0 .636-.122l3.939-4.432 3.872 2.902a.534.534 0 0 0 .686-.039l3.365-3.188v8.131H5.331V8.568h18.123v2.661l-3.771 3.572-3.904-2.927a.534.534 0 0 0-.718.071v.001l-3.993 4.493-1.493-.746c.011-.064.017-.128.02-.193a1.6 1.6 0 0 0-1.599-1.599zm.533 1.599a.533.533 0 0 1-1.066 0 .533.533 0 0 1 1.066 0zm3.198 8.528h5.33v.533a.533.533 0 0 1-.533.533h-4.265a.533.533 0 0 1-.533-.533v-.533zm-10.66.534c0-.294.238-.533.533-.533h9.062v.533a1.6 1.6 0 0 0 1.599 1.599h4.265a1.6 1.6 0 0 0 1.599-1.599v-.533h9.062c.294 0 .533.239.533.533v2.132a.533.533 0 0 1-.533.533H1.601a.533.533 0 0 1-.533-.533V24.56z"/>
    </symbol>
    <symbol id="icon-envelope" viewBox="0 0 32 32">
      <path d="M28.775 4.093H2.976A2.981 2.981 0 0 0-.001 7.07v17.86a2.981 2.981 0 0 0 2.977 2.977h25.799a2.981 2.981 0 0 0 2.977-2.977V7.07a2.981 2.981 0 0 0-2.977-2.977zm0 1.985c.135 0 .264.028.381.077l-13.28 11.51-13.28-11.51a.974.974 0 0 1 .381-.077h25.799zm0 19.844H2.976a.992.992 0 0 1-.992-.992V8.251l13.241 11.476c.173.151.401.243.651.243s.478-.092.652-.244l-.002.001L29.767 8.251V24.93a.992.992 0 0 1-.992.992z"/>
    </symbol>
    <symbol id="icon-facebook" viewBox="0 0 32 32">
      <path d="M20.328 5.312h2.923V.224A35.274 35.274 0 0 0 19.213 0H18.995c-4.213 0-7.099 2.65-7.099 7.52V12H7.25v5.688h4.646V32h5.698V17.69h4.462l.707-5.69h-5.168V8.08c0-1.643.443-2.768 2.734-2.768z"/>
    </symbol>
    <symbol id="icon-instagram" viewBox="0 0 32 32">
      <path d="M31.968 9.408c-.074-1.701-.349-2.869-.742-3.882a7.867 7.867 0 0 0-1.849-2.836l-.001-.001-.001-.001A7.914 7.914 0 0 0 26.65.88l-.053-.019-.054-.018C25.524.449 24.362.176 22.661.101 20.949.019 20.405 0 16.059 0c-4.344 0-4.888.019-6.595.094-1.699.074-2.869.349-3.88.742a7.884 7.884 0 0 0-2.838 1.849l-.001.001-.001.001A7.909 7.909 0 0 0 .938 5.412l-.019.053-.018.054C.506 6.538.232 7.7.157 9.401c-.082 1.712-.101 2.256-.101 6.602 0 4.344.019 4.888.094 6.595.075 1.701.35 2.869.744 3.882a7.948 7.948 0 0 0 1.848 2.836l.001.001.001.001c.8.813 1.77 1.443 2.832 1.843 1.019.395 2.182.67 3.882.744 1.707.075 2.251.094 6.595.094 4.346 0 4.89-.019 6.595-.094 1.701-.074 2.869-.349 3.882-.742a8.288 8.288 0 0 0 4.644-4.573l.02-.055.019-.055c.394-1.019.669-2.182.744-3.882.075-1.707.093-2.251.093-6.595s-.006-4.888-.08-6.595zm-2.88 13.066c-.07 1.563-.333 2.406-.55 2.97a5.371 5.371 0 0 1-2.968 3.011l-.036.013-.036.012c-.56.219-1.411.482-2.968.55-1.688.075-2.194.094-6.464.094-4.269 0-4.782-.019-6.464-.094-1.563-.069-2.406-.331-2.97-.55a4.98 4.98 0 0 1-1.835-1.191l-.001-.001-.001-.001a4.973 4.973 0 0 1-1.172-1.769l-.012-.034-.011-.034c-.218-.563-.48-1.413-.549-2.97-.075-1.688-.094-2.195-.094-6.464 0-4.27.019-4.784.094-6.464.069-1.563.331-2.406.549-2.97a4.919 4.919 0 0 1 1.197-1.836l.001-.001.002-.002a4.967 4.967 0 0 1 1.772-1.17l.034-.012.034-.011c.56-.219 1.411-.48 2.968-.55 1.688-.074 2.195-.093 6.464-.093 4.275 0 4.782.019 6.464.093 1.563.069 2.406.331 2.97.55a4.935 4.935 0 0 1 1.836 1.193l.001.001c.531.52.938 1.144 1.195 1.84.218.56.48 1.411.549 2.968.075 1.688.094 2.194.094 6.464 0 4.269-.019 4.768-.094 6.458z"/>
      <path d="M16.059 7.782a8.223 8.223 0 0 0-8.219 8.221 8.224 8.224 0 0 0 16.442.018v-.019a8.223 8.223 0 0 0-8.221-8.221zm0 13.552a5.333 5.333 0 0 1 .001-10.666h.002a5.334 5.334 0 1 1 0 10.668zM26.525 7.458a1.92 1.92 0 0 1-3.84 0 1.92 1.92 0 0 1 3.84 0z"/>
    </symbol>
    <symbol id="icon-linkedin" viewBox="0 0 32 32">
      <path d="M31.992 32H32V20.262c0-5.741-1.237-10.163-7.947-10.163-3.227 0-5.392 1.77-6.277 3.45h-.093v-2.914h-6.365v21.363h6.627V21.42c0-2.786.528-5.48 3.978-5.48 3.398 0 3.448 3.179 3.448 5.658V32h6.621zM.528 10.635h6.635V32H.528V10.635zM3.843 0A3.844 3.844 0 0 0 0 3.843c0 2.12 1.722 3.878 3.843 3.878 2.12 0 3.842-1.757 3.842-3.878S5.965.002 3.844 0z"/>
    </symbol>
    <symbol id="icon-smartphone" viewBox="0 0 32 32">
      <path d="M23 0H9C7.346 0 6 1.346 6 3v26c0 1.654 1.346 3 3 3h14c1.654 0 3-1.346 3-3V3c0-1.654-1.346-3-3-3zM9 2h14a1 1 0 0 1 1 1v21H8V3a1 1 0 0 1 1-1zm14 28H9a1 1 0 0 1-1-1v-3h16v3a1 1 0 0 1-1 1z"/>
      <path d="M10.708 27.478a.887.887 0 0 1 .001 1.318l-.001.001-.001.001a1.044 1.044 0 0 1-1.418 0l.001.001.001.001a.887.887 0 0 1-.001-1.318l.001-.001.001-.001a1.044 1.044 0 0 1 1.418 0l-.001-.001-.001-.001z"/>
    </symbol>
    <symbol id="icon-twitter" viewBox="0 0 32 32">
      <path d="M32 6.078c-1.1.493-2.376.857-3.713 1.028l-.068.007a6.587 6.587 0 0 0 2.859-3.533l.014-.046.013-.046a12.656 12.656 0 0 1-3.993 1.559l-.083.014-.084.014A6.558 6.558 0 0 0 15.6 9.557v.004c0 .52.043 1.021.152 1.496-5.454-.266-10.28-2.88-13.522-6.861a6.45 6.45 0 0 0-.902 3.31v.004a6.565 6.565 0 0 0 2.891 5.436l.023.015a6.422 6.422 0 0 1-3.026-.84l.032.017.033.017v.072a6.595 6.595 0 0 0 5.169 6.432l.087.016a6.235 6.235 0 0 1-1.645.215h-.075c-.419 0-.843-.024-1.242-.112.85 2.598 3.261 4.509 6.13 4.57a13.012 13.012 0 0 1-8.092 2.8h-.104c-.531 0-1.055-.034-1.569-.099l.061.006c2.826 1.846 6.287 2.944 10.004 2.944h.06c12.072 0 18.672-10 18.672-18.669 0-.288-.01-.57-.024-.848a13.327 13.327 0 0 0 3.229-3.309l.029-.046.03-.047z"/>
    </symbol>
  </defs>
</svg>
